<svg width="77" height="84" viewBox="0 0 77 84" fill="none" xmlns="http://www.w3.org/2000/svg">
<g style="mix-blend-mode:luminosity">
<path d="M5.7506 0C5.04286 0 4.51559 0.629183 4.57845 1.39798L10.5446 74.4026C10.6075 75.1716 11.2166 75.9697 11.8988 76.1763L37.2163 83.845C37.8983 84.0515 39.014 84.0515 39.6962 83.8454L65.0907 76.1642C65.7728 75.9578 66.3826 75.1598 66.4453 74.391L72.4214 1.39798C72.4847 0.629183 71.9569 0 71.2491 0H5.7506ZM59.7156 16.7433C59.6592 17.4291 59.5617 18.6197 59.4989 19.3887L59.3417 21.3041C59.2784 22.0728 59.1883 23.1722 59.1408 23.7469C59.0934 24.3218 59.0485 24.7921 59.0402 24.7921C59.0322 24.7921 58.4464 24.7921 57.7388 24.7921H39.7866C39.0789 24.7921 38.494 24.7921 38.4863 24.7921C38.4787 24.7921 37.8932 24.7921 37.1854 24.7921H27.7306C27.0229 24.7921 26.4956 25.4213 26.5585 26.1901L27.11 32.9151C27.1728 33.6837 27.8036 34.3131 28.5112 34.3131H37.1856C37.8933 34.3131 38.4787 34.3131 38.4865 34.3131C38.4943 34.3131 39.0792 34.3131 39.7868 34.3131H54.6969C55.4046 34.3131 56.4998 34.3131 57.1305 34.3131C57.7608 34.3131 58.2302 34.8743 58.173 35.5601C58.1156 36.2459 58.0175 37.4368 57.9548 38.2055L56.1815 59.8864C56.1182 60.6554 56.0382 61.6377 56.0038 62.0695C55.9686 62.501 55.3821 63.0228 54.7 63.2292L39.74 67.7544C39.058 67.9605 38.4914 68.1311 38.4808 68.1337C38.4702 68.1362 37.9039 67.9692 37.2215 67.763L22.2455 63.2296C21.5635 63.0232 20.9541 62.2252 20.8914 61.4562L19.9274 49.6527C19.8645 48.8837 20.3924 48.2545 21.1002 48.2545H22.4669C23.1747 48.2545 24.3327 48.2545 25.0403 48.2545H27.0784C27.7861 48.2545 28.4163 48.8837 28.4796 49.6527L28.8577 54.2733C28.9205 55.0423 29.5307 55.8359 30.214 56.0372L37.2191 58.1009C37.9021 58.3022 38.4636 58.467 38.4668 58.467C38.4699 58.467 39.0312 58.3019 39.7144 58.1006L46.7321 56.0319C47.4151 55.8306 48.0258 55.0367 48.0891 54.2681L48.8501 45.0105C48.9134 44.2415 48.3861 43.6123 47.6784 43.6123H39.7868C39.079 43.6123 38.4941 43.6123 38.4865 43.6123C38.4788 43.6123 37.8933 43.6123 37.1856 43.6123H20.7186C20.0109 43.6123 19.3807 42.983 19.3179 42.2143L17.4506 19.3889C17.3877 18.6199 17.2903 17.4296 17.2339 16.7435C17.1781 16.0577 17.7109 15.4964 18.4187 15.4964H37.1856C37.8933 15.4964 38.4787 15.4964 38.4865 15.4964C38.4943 15.4964 39.0792 15.4964 39.7868 15.4964H58.531C59.2385 15.4961 59.7717 16.0572 59.7156 16.7433Z" fill="#777777"/>
</g>
</svg>
