<svg width="72" height="77" viewBox="0 0 72 77" fill="none" xmlns="http://www.w3.org/2000/svg">
<g style="mix-blend-mode:luminosity" clip-path="url(#clip0_5696_25)">
<path d="M71.134 0H0V76.8857H71.134V0Z" fill="#D1D1D1"/>
<path d="M47.784 60.0673C49.2169 62.596 51.081 64.4547 54.378 64.4547C57.1478 64.4547 58.9171 62.9584 58.9171 60.8911C58.9171 58.4136 57.0992 57.5362 54.0506 56.0949L52.3795 55.3199C47.556 53.0988 44.3515 50.3162 44.3515 44.4339C44.3515 39.0152 48.1713 34.8903 54.1409 34.8903C58.3909 34.8903 61.4463 36.489 63.6481 40.675L58.4428 44.2874C57.2968 42.0663 56.0604 41.1912 54.1409 41.1912C52.1831 41.1912 50.9422 42.5337 50.9422 44.2874C50.9422 46.4548 52.1842 47.3323 55.0521 48.6748L56.7232 49.4485C62.4026 52.0809 65.6093 54.7646 65.6093 60.7983C65.6093 67.3031 60.8817 70.8667 54.5327 70.8667C48.3249 70.8667 44.3143 67.6692 42.3519 63.4783L47.784 60.0673ZM24.1709 60.6934C25.221 62.707 26.1762 64.4095 28.4728 64.4095C30.669 64.4095 32.0544 63.4808 32.0544 59.8696V35.3028H38.7387V59.9672C38.7387 67.4483 34.6807 70.8533 28.7574 70.8533C23.4054 70.8533 20.306 67.8596 18.7297 64.2539L24.1709 60.6934Z" fill="#F3F2F0"/>
</g>
<defs>
<clipPath id="clip0_5696_25">
<rect width="71.134" height="76.8857" fill="white"/>
</clipPath>
</defs>
</svg>
