<svg width="76" height="82" viewBox="0 0 76 82" fill="none" xmlns="http://www.w3.org/2000/svg">
<g clip-path="url(#clip0_5765_33)">
<path d="M5.06 20.1637C-1.55687 30.4806 -0.732509 43.9034 4.32131 54.8665C4.44162 55.1294 4.56754 55.3878 4.69183 55.6471C4.77101 55.8102 4.84577 55.9785 4.92819 56.1398C4.97449 56.2369 5.02683 56.3315 5.07534 56.4243C5.16174 56.5995 5.24962 56.7652 5.33926 56.936C5.49629 57.2361 5.65745 57.5345 5.8217 57.8328C5.91282 57.9967 6.00276 58.1607 6.09669 58.3245C6.27893 58.6438 6.46559 58.9605 6.65683 59.2751C6.73645 59.4097 6.81386 59.5442 6.89554 59.6741C7.15903 60.1009 7.42841 60.5268 7.70619 60.9448C7.71342 60.9552 7.72138 60.9666 7.72949 60.977C7.77343 61.0446 7.82223 61.1105 7.86661 61.1774C8.1068 61.5373 8.3551 61.8921 8.60531 62.2442C8.69761 62.3718 8.79124 62.5001 8.88398 62.6284C9.10751 62.9338 9.33531 63.2366 9.5668 63.5391C9.6535 63.6518 9.74034 63.7654 9.82792 63.8764C10.1384 64.273 10.4554 64.6684 10.7798 65.0561C10.7854 65.0632 10.7929 65.071 10.799 65.0779C10.8121 65.0944 10.8238 65.1048 10.8354 65.1204C11.1517 65.4952 11.475 65.8622 11.8029 66.2282C11.9044 66.3408 12.0085 66.4545 12.1127 66.5673C12.3666 66.8439 12.6245 67.1155 12.885 67.3887C12.9909 67.4972 13.0957 67.609 13.2009 67.7139C13.549 68.0696 13.9005 68.4182 14.2591 68.7583C14.2654 68.7652 14.2698 68.7704 14.2759 68.773C14.3366 68.832 14.3997 68.8885 14.4598 68.943C14.776 69.2404 15.0974 69.5354 15.4212 69.8252C15.5532 69.9406 15.6866 70.0551 15.8195 70.1695C16.0841 70.3995 16.3515 70.6258 16.621 70.8486C16.7633 70.9665 16.906 71.0846 17.0495 71.2026C17.3466 71.4386 17.6459 71.6734 17.9486 71.9017C18.059 71.9884 18.1656 72.0715 18.2765 72.1541C18.3069 72.1774 18.3349 72.2018 18.366 72.2242C18.6531 72.4375 18.946 72.645 19.239 72.8506C19.3649 72.9414 19.4901 73.0352 19.6172 73.1236C20.0669 73.4317 20.5231 73.7369 20.9843 74.0328C21.1099 74.1099 21.2362 74.1864 21.3621 74.2635C21.7011 74.4759 22.0421 74.6842 22.3883 74.888C22.575 74.9972 22.7672 75.1004 22.9555 75.2045C23.2001 75.3442 23.4424 75.4846 23.6902 75.6182C23.7466 75.6494 23.8049 75.679 23.8605 75.7076C23.9596 75.7596 24.0603 75.811 24.1607 75.8655C24.5453 76.065 24.933 76.2601 25.3241 76.45C25.4077 76.4898 25.488 76.5298 25.5707 76.5689C26.019 76.7813 26.471 76.9868 26.9284 77.1822C27.038 77.2298 27.1487 77.2757 27.2591 77.3236C27.6817 77.4997 28.1099 77.6739 28.5395 77.838C28.5942 77.8588 28.6467 77.8778 28.7005 77.8977C29.1727 78.0773 29.6492 78.2429 30.1293 78.4052C30.2436 78.4417 30.3587 78.4817 30.4739 78.518C30.9624 78.6775 31.4445 78.8675 31.9491 78.9689C63.9476 85.2992 73.2426 58.1071 73.2426 58.1071C65.4365 69.1406 51.5794 72.0516 38.4505 68.8107C37.9527 68.6893 37.4706 68.5211 36.9852 68.3649C36.8618 68.3251 36.741 68.2853 36.6195 68.2445C36.1458 68.0866 35.676 67.921 35.2088 67.7467C35.1448 67.7224 35.08 67.6965 35.0149 67.671C34.5964 67.5115 34.183 67.3433 33.7707 67.1705C33.6544 67.1203 33.5381 67.0726 33.4222 67.0222C32.9705 66.8288 32.5216 66.6266 32.0789 66.416C31.9874 66.3742 31.9002 66.3301 31.8107 66.2866C31.4299 66.1 31.0532 65.9119 30.677 65.7158C30.5691 65.6587 30.4603 65.6032 30.35 65.5451C30.0557 65.3898 29.7639 65.2241 29.4737 65.0619C29.2791 64.9509 29.0812 64.8451 28.889 64.7297C28.5339 64.5233 28.1854 64.309 27.8387 64.0905C27.7208 64.0185 27.6021 63.9498 27.4837 63.8761C27.0223 63.5813 26.5666 63.2759 26.1157 62.9662C25.9914 62.8805 25.8695 62.7885 25.7468 62.7001C25.4198 62.471 25.0939 62.2386 24.7737 61.9974C24.6673 61.9211 24.5643 61.8361 24.4599 61.7589C24.15 61.5221 23.8439 61.2811 23.5395 61.0373C23.402 60.9271 23.2657 60.8125 23.1319 60.7023C22.8532 60.4709 22.5758 60.2384 22.3016 59.998C22.178 59.8913 22.0537 59.7838 21.9314 59.6762C21.5824 59.3649 21.2378 59.0526 20.8972 58.7316C20.8617 58.6969 20.8229 58.6639 20.7841 58.6284C20.4162 58.2772 20.0541 57.9171 19.6971 57.5554C19.5932 57.4479 19.4925 57.3438 19.3909 57.2353C19.1259 56.9631 18.8657 56.6871 18.6099 56.4053C18.5075 56.2943 18.4043 56.1841 18.3036 56.074C17.9779 55.7114 17.6584 55.3454 17.3451 54.9733C17.3295 54.9551 17.3131 54.9386 17.2979 54.9186C16.9665 54.5256 16.6427 54.1241 16.3257 53.7181C16.2397 53.6071 16.1562 53.4996 16.071 53.3902C15.8348 53.0813 15.6005 52.7681 15.3718 52.4517C15.2854 52.3389 15.1996 52.2217 15.1147 52.1055C14.8397 51.7178 14.5703 51.332 14.3064 50.938C7.01689 40.1529 4.39812 25.2753 10.2238 13.0571" fill="#0968AC"/>
<path d="M25.5992 11.4715C20.8141 18.9424 21.074 28.9416 24.8066 36.8429C25.4326 38.1673 26.1362 39.452 26.9233 40.6759C27.64 41.7905 28.4344 43.1167 29.3858 44.0117C29.7312 44.4237 30.0914 44.8262 30.4596 45.221C30.5528 45.3251 30.6479 45.4232 30.743 45.5254C31.0999 45.9002 31.4637 46.2705 31.8395 46.6296C31.855 46.6435 31.8687 46.6598 31.8843 46.6712C31.8883 46.6763 31.8923 46.6782 31.8947 46.6834C32.3105 47.0781 32.7397 47.4588 33.1758 47.8327C33.2725 47.9125 33.3685 47.9966 33.4664 48.079C33.9033 48.4424 34.3492 48.8008 34.8064 49.1408C34.82 49.1511 34.8316 49.1616 34.8452 49.1738C35.0467 49.3238 35.2526 49.4651 35.4565 49.6102C35.5548 49.6796 35.648 49.7533 35.7468 49.8183C36.073 50.0448 36.4037 50.266 36.7398 50.4784C36.7873 50.5106 36.8342 50.5365 36.8802 50.5661C37.1699 50.7473 37.4638 50.926 37.7585 51.0986C37.8613 51.1619 37.966 51.2165 38.0708 51.2755C38.2743 51.391 38.4778 51.5079 38.6852 51.6207C38.7152 51.6364 38.7476 51.6519 38.7775 51.6658C39.1992 51.8912 39.625 52.1083 40.0591 52.3129C40.1516 52.357 40.2474 52.3968 40.3422 52.4394C40.6889 52.599 41.0398 52.7553 41.3916 52.9018C41.5411 52.9634 41.6922 53.0215 41.8417 53.0815C42.1611 53.2099 42.4827 53.3276 42.806 53.4457C42.9523 53.4959 43.0957 53.5481 43.2422 53.5965C43.7022 53.7509 44.1568 53.9469 44.6364 54.0336C69.3422 58.4747 75.0464 37.8375 75.0464 37.8375C69.9043 45.8695 59.9473 49.7044 49.322 46.7118C48.8504 46.5775 48.3853 46.4308 47.9234 46.2729C47.7818 46.2262 47.6428 46.1758 47.5027 46.1254C47.1741 46.0101 46.8475 45.8871 46.5237 45.7596C46.3754 45.7013 46.2273 45.6425 46.0819 45.5817C45.7269 45.4334 45.3763 45.2807 45.0284 45.1202C44.9336 45.0761 44.8374 45.0369 44.7446 44.9902C44.3085 44.7846 43.8791 44.5669 43.4554 44.3414C43.2374 44.2249 43.0236 44.1029 42.8094 43.984C42.6854 43.9138 42.5607 43.8444 42.4364 43.7749C42.1609 43.6126 41.8879 43.4453 41.6181 43.2744C41.5545 43.2346 41.4877 43.1973 41.423 43.1546C41.0881 42.9422 40.7586 42.7237 40.4323 42.4989C40.3316 42.4287 40.2349 42.3532 40.1342 42.282C39.9188 42.1304 39.7036 41.9768 39.4925 41.8215C39.0372 41.4816 38.5938 41.1242 38.1572 40.7616C38.0565 40.6757 37.9554 40.5916 37.8566 40.5057C33.2053 36.5217 29.5196 31.0771 27.767 24.9047C25.9301 18.5016 26.3255 11.316 29.508 5.48364" fill="#0968AC"/>
<path d="M42.8735 4.9774C40.0527 9.48094 39.7757 15.074 41.733 20.0484C43.797 25.3283 48.0266 29.4701 52.9636 31.433C53.1671 31.5154 53.3701 31.5892 53.5768 31.6647C53.6666 31.695 53.7558 31.728 53.8469 31.7566C54.1377 31.8563 54.4267 31.9718 54.7273 32.0332C68.3689 34.893 72.069 24.4383 73.0541 22.8994C69.8124 27.9624 64.3659 29.1777 57.6824 27.4186C57.1543 27.278 56.5738 27.0717 56.0652 26.8756C55.4128 26.624 54.7701 26.336 54.1449 26.0108C52.9584 25.3923 51.8274 24.6412 50.778 23.7824C44.798 18.8591 41.0822 9.46783 44.9848 1.81897" fill="#0968AC"/>
</g>
<defs>
<clipPath id="clip0_5765_33">
<rect width="75.4917" height="81.9" fill="white"/>
</clipPath>
</defs>
</svg>
