<svg width="71" height="71" viewBox="0 0 71 71" fill="none" xmlns="http://www.w3.org/2000/svg">
<g style="mix-blend-mode:luminosity" clip-path="url(#clip0_8_228)">
<path d="M71 59.1667C71 65.675 65.675 71 59.1667 71H11.8333C5.325 71 0 65.675 0 59.1667V11.8333C0 5.325 5.325 0 11.8333 0H59.1667C65.675 0 71 5.325 71 11.8333V59.1667Z" fill="#563D7C"/>
<path d="M19.293 15.4297H39.4213C43.1337 15.4297 46.1152 16.2766 48.3543 17.982C50.5933 19.6874 51.7187 22.2513 51.7187 25.6968C51.7187 27.7851 51.2082 29.5717 50.1873 31.0566C49.1664 32.5416 47.7046 33.7017 45.802 34.5138V34.6299C48.3543 35.1751 50.2917 36.3816 51.6026 38.2495C52.9136 40.1289 53.5749 42.4723 53.5749 45.3031C53.5749 46.9272 53.2848 48.447 52.7048 49.8508C52.1247 51.2661 51.2198 52.4843 49.9785 53.5052C48.7371 54.5261 47.1593 55.3382 45.2219 55.9415C43.2845 56.5447 40.9874 56.8464 38.3191 56.8464H19.293V15.4297ZM26.5438 32.7736H38.3771C40.1173 32.7736 41.5675 32.2864 42.7276 31.2887C43.8878 30.291 44.4678 28.8756 44.4678 27.0194C44.4678 24.9312 43.9458 23.4578 42.9017 22.6109C41.8575 21.764 40.3494 21.3348 38.3771 21.3348H26.5438V32.7736ZM26.5438 50.9297H39.3633C41.5675 50.9297 43.2845 50.3612 44.491 49.2127C45.7092 48.0758 46.324 46.4516 46.324 44.3633C46.324 42.3099 45.7208 40.7437 44.491 39.63C43.2613 38.5163 41.5675 37.9826 39.3633 37.9826H26.5438V50.9297Z" fill="#F3F2F0"/>
</g>
<defs>
<clipPath id="clip0_8_228">
<rect width="71" height="71" fill="white"/>
</clipPath>
</defs>
</svg>
