<svg width="105" height="55" viewBox="0 0 105 55" fill="none" xmlns="http://www.w3.org/2000/svg">
<g style="mix-blend-mode:luminosity" clip-path="url(#clip0_8_215)">
<path d="M52.5 54.837C81.4949 54.837 105 42.5613 105 27.4185C105 12.2757 81.4949 0 52.5 0C23.505 0 0 12.2757 0 27.4185C0 42.5613 23.505 54.837 52.5 54.837Z" fill="url(#paint0_radial_8_215)"/>
<path d="M52.5 52.8C80.3623 52.8 102.949 41.4363 102.949 27.4185C102.949 13.4007 80.3623 2.03705 52.5 2.03705C24.6377 2.03705 2.05078 13.4007 2.05078 27.4185C2.05078 41.4363 24.6377 52.8 52.5 52.8Z" fill="#6181B6"/>
<path d="M62.7129 35.6482L65.2149 22.8556C65.7891 19.963 65.2969 17.8037 63.8204 16.4593C62.3848 15.1556 59.9239 14.5037 56.3145 14.5037H51.9668L53.1973 8.14819C53.2383 7.90374 53.1973 7.6593 53.0333 7.45559C52.8692 7.25189 52.6641 7.17041 52.418 7.17041H46.4297C46.0196 7.17041 45.6915 7.4556 45.6094 7.82226L42.9434 21.3889C42.6973 19.8408 42.1231 18.5371 41.1387 17.4778C39.3751 15.4815 36.627 14.463 32.8946 14.463H21.3692C20.959 14.463 20.6309 14.7482 20.5489 15.1149L15.1758 42.6556C15.1348 42.9 15.1758 43.1445 15.3399 43.3482C15.504 43.5519 15.709 43.6334 15.9551 43.6334H21.9844C22.3946 43.6334 22.7227 43.3482 22.8047 42.9815L24.1172 36.3408H28.5879C30.9258 36.3408 32.9356 36.0963 34.4532 35.6075C36.0528 35.0778 37.4883 34.2223 38.7598 33.0408C39.7852 32.1037 40.6465 31.0445 41.3028 29.9037L40.2364 35.4037C40.1954 35.6482 40.2364 35.8926 40.4004 36.0963C40.5645 36.3 40.7696 36.3815 41.0157 36.3815H47.004C47.4141 36.3815 47.7422 36.0963 47.8243 35.7297L50.7774 20.6556H54.879C56.6426 20.6556 57.1348 20.9815 57.2989 21.1445C57.4219 21.2667 57.668 21.7556 57.3809 23.263L55.002 35.4445C54.961 35.6889 55.002 35.9334 55.1661 36.1371C55.3301 36.3408 55.5352 36.4223 55.7813 36.4223H61.9336C62.3028 36.3 62.6309 36.0149 62.7129 35.6482ZM34.9864 25.0556C34.6172 26.9704 33.92 28.3556 32.8946 29.1297C31.8692 29.9037 30.1876 30.3112 27.9727 30.3112H25.3067L27.2344 20.4519H30.6797C33.2227 20.4519 34.2481 20.9815 34.6583 21.4297C35.1915 22.0815 35.3145 23.3445 34.9864 25.0556Z" fill="#F3F2F0"/>
<path d="M88.3067 17.4778C86.543 15.4815 83.795 14.463 80.0625 14.463H68.4551C68.045 14.463 67.7168 14.7482 67.6348 15.1149L62.2618 42.6149C62.2207 42.8593 62.2618 43.1038 62.4258 43.3075C62.5899 43.5112 62.795 43.5926 63.0411 43.5926H69.0704C69.4805 43.5926 69.8086 43.3075 69.8907 42.9408L71.2032 36.3H75.6739C78.0118 36.3 80.0215 36.0556 81.5391 35.5667C83.1387 35.0371 84.5743 34.1815 85.8458 33C86.9122 32.0223 87.8145 30.9223 88.4708 29.7408C89.127 28.5593 89.6192 27.2556 89.9063 25.8297C90.6036 22.2852 90.0704 19.5149 88.3067 17.4778ZM82.0313 25.0556C81.6622 26.9704 80.9649 28.3556 79.9395 29.1297C78.9141 29.9038 77.2325 30.3112 75.0176 30.3112H72.3516L74.2793 20.4519H77.7247C80.2676 20.4519 81.293 20.9815 81.7032 21.4297C82.2774 22.0815 82.4004 23.3445 82.0313 25.0556Z" fill="#F3F2F0"/>
<path d="M30.6797 19.637C32.9766 19.637 34.4941 20.0444 35.2734 20.9C36.0527 21.7555 36.2168 23.1815 35.8066 25.2185C35.3965 27.337 34.5762 28.8852 33.3867 29.7815C32.1973 30.6778 30.3926 31.1259 27.9727 31.1259H24.3223L26.5781 19.637H30.6797ZM15.9961 42.7778H22.0254L23.4609 35.4852H28.6289C30.9258 35.4852 32.7715 35.2407 34.248 34.7518C35.7246 34.263 37.0371 33.4889 38.2676 32.3481C39.293 31.4111 40.1133 30.3926 40.7285 29.2926C41.3438 28.1926 41.7949 26.9704 42.041 25.6259C42.6973 22.3667 42.2051 19.8407 40.6055 18.0074C39.0059 16.1741 36.4629 15.2778 32.9766 15.2778H21.3691L15.9961 42.7778Z" fill="#F3F2F0"/>
<path d="M46.4707 7.98517H52.459L51.0234 15.2778H56.3555C59.7187 15.2778 62.0156 15.8481 63.2871 17.0296C64.5586 18.2111 64.9277 20.0852 64.4355 22.6926L61.9336 35.4852H55.8633L58.2422 23.3037C58.5293 21.9185 58.4063 20.9815 57.9551 20.4926C57.5039 20.0037 56.4785 19.7185 54.9609 19.7185H50.1621L47.0859 35.4852H41.0977L46.4707 7.98517Z" fill="#F3F2F0"/>
<path d="M77.7246 19.637C80.0215 19.637 81.5391 20.0444 82.3184 20.9C83.0977 21.7555 83.2617 23.1815 82.8516 25.2185C82.4414 27.337 81.6211 28.8852 80.4317 29.7815C79.2422 30.6778 77.4375 31.1259 75.0176 31.1259H71.3672L73.6231 19.637H77.7246ZM63.041 42.7778H69.0703L70.5059 35.4852H75.6738C77.9707 35.4852 79.8164 35.2407 81.293 34.7518C82.7695 34.263 84.082 33.4889 85.3125 32.3481C86.3379 31.4111 87.1582 30.3926 87.7735 29.2926C88.3887 28.1926 88.8399 26.9704 89.086 25.6259C89.7422 22.3667 89.25 19.8407 87.6504 18.0074C86.0508 16.1741 83.5078 15.2778 80.0215 15.2778H68.4141L63.041 42.7778Z" fill="#F3F2F0"/>
</g>
<defs>
<radialGradient id="paint0_radial_8_215" cx="0" cy="0" r="1" gradientUnits="userSpaceOnUse" gradientTransform="translate(31.5212 9.6424) scale(68.9453 68.4832)">
<stop stop-color="white"/>
<stop offset="0.5" stop-color="#4C6B97"/>
<stop offset="1" stop-color="#231F20"/>
</radialGradient>
<clipPath id="clip0_8_215">
<rect width="105" height="55" fill="white"/>
</clipPath>
</defs>
</svg>
